# xmcd CD Database Entry
#
# Track frame offsets:
# 150
# 23037
# 40475
#
# Disc length: 729 seconds
#
# Revision: 1
# Processed by: cddbd v1.4b41PL1 Copyright (c) Steve Scherf et al.
# Submitted via: tcd 2.0b
#
DISCID=1d02d703
DTITLE=Gomez - Rhythm and Blues Alibi [CD1)
DYEAR=1900
DGENRE=
TTITLE0=Rhythm and Blues Alibi (Album Version)
TTITLE1=The Best In The Town
TTITLE2=So
EXTD=(c) 1999 Virgin Records Ltd.
EXTT0=
EXTT1=
EXTT2=
PLAYORDER=
